ply
format ascii 1.0
comment SOLIDWORKS generated,length unit = millimetres
element vertex 8
property float x
property float y
property float z
element face 12
property uchar red
property uchar green
property uchar blue
property uchar alpha
property list uchar int vertex_indices
end_header
0 0 0 
40.0338 0 0 
0 0 10 
40.0338 0 10 
0 40.7064 0 
40.0338 40.7064 0 
0 40.7064 10 
40.0338 40.7064 10 
202 209 238 0 3 2 6 0
202 209 238 0 3 6 4 0
202 209 238 0 3 1 2 0
202 209 238 0 3 4 1 0
202 209 238 0 3 3 2 1
202 209 238 0 3 5 3 1
202 209 238 0 3 4 5 1
202 209 238 0 3 3 7 2
202 209 238 0 3 7 6 2
202 209 238 0 3 5 7 3
202 209 238 0 3 6 7 4
202 209 238 0 3 7 5 4
