ply
format ascii 1.0
comment VCGLIB generated
element vertex 50
property float x
property float y
property float z
element face 96
property list uchar int vertex_indices
end_header
0 -50 0 
86.6025 -50 50 
25.8819 -50 96.5926 
-25.8819 -50 96.5926 
-50 -50 86.6025 
-70.7107 -50 70.7107 
-100 -50 1.22461e-14 
50 -50 -86.6025 
96.5926 -50 -25.8819 
141.421 50 141.421 
1.22461e-14 50 200 
-100 50 173.205 
-173.205 50 100 
-200 50 2.44921e-14 
-193.185 50 51.7638 
-141.421 50 -141.421 
-173.205 50 -100 
0 50 0 
-100 50 -173.205 
-51.7638 50 -193.185 
200 50 0 
100 -50 0 
96.5926 -50 25.8819 
193.185 50 51.7638 
173.205 50 100 
70.7107 -50 70.7107 
100 50 173.205 
50 -50 86.6025 
51.7638 50 193.185 
6.12303e-15 -50 100 
-51.7638 50 193.185 
-141.421 50 141.421 
-86.6025 -50 50 
-96.5926 -50 25.8819 
-193.185 50 -51.7638 
-96.5926 -50 -25.8819 
-86.6025 -50 -50 
-70.7107 -50 -70.7107 
-50 -50 -86.6025 
-25.8819 -50 -96.5926 
-1.83691e-14 -50 -100 
-3.67382e-14 50 -200 
51.7638 50 -193.185 
25.8819 -50 -96.5926 
100 50 -173.205 
70.7107 -50 -70.7107 
141.421 50 -141.421 
173.205 50 -100 
86.6025 -50 -50 
193.185 50 -51.7638 
3 0 21 22 
3 0 22 1 
3 0 1 25 
3 0 25 27 
3 0 27 2 
3 0 2 29 
3 0 29 3 
3 0 3 4 
3 0 4 5 
3 0 5 32 
3 0 32 33 
3 0 33 6 
3 0 6 35 
3 0 35 36 
3 0 36 37 
3 0 37 38 
3 0 38 39 
3 0 39 40 
3 0 40 43 
3 0 43 7 
3 0 7 45 
3 0 45 48 
3 0 48 8 
3 0 8 21 
3 17 23 20 
3 17 24 23 
3 17 9 24 
3 17 26 9 
3 17 28 26 
3 17 10 28 
3 17 30 10 
3 17 11 30 
3 17 31 11 
3 17 12 31 
3 17 14 12 
3 17 13 14 
3 17 34 13 
3 17 16 34 
3 17 15 16 
3 17 18 15 
3 17 19 18 
3 17 41 19 
3 17 42 41 
3 17 44 42 
3 17 46 44 
3 17 47 46 
3 17 49 47 
3 17 20 49 
3 21 20 23 
3 21 23 22 
3 22 23 24 
3 22 24 1 
3 1 24 9 
3 1 9 25 
3 25 9 26 
3 25 26 27 
3 27 26 28 
3 27 28 2 
3 2 28 10 
3 2 10 29 
3 29 10 30 
3 29 30 3 
3 3 30 11 
3 3 11 4 
3 4 11 31 
3 4 31 5 
3 5 31 12 
3 5 12 32 
3 32 12 14 
3 32 14 33 
3 33 14 13 
3 33 13 6 
3 6 13 34 
3 6 34 35 
3 35 34 16 
3 35 16 36 
3 36 16 15 
3 36 15 37 
3 37 15 18 
3 37 18 38 
3 38 18 19 
3 38 19 39 
3 39 19 41 
3 39 41 40 
3 40 41 42 
3 40 42 43 
3 43 42 44 
3 43 44 7 
3 7 44 46 
3 7 46 45 
3 45 46 47 
3 45 47 48 
3 48 47 49 
3 48 49 8 
3 8 49 20 
3 8 20 21 
